<svg width="50" height="50" viewBox="0 0 50 50" fill="none" xmlns="http://www.w3.org/2000/svg">
  <rect width="50" height="50" rx="10" fill="#00A8E8"/>
  <path d="M15 15H35V25C35 30.5228 30.5228 35 25 35C19.4772 35 15 30.5228 15 25V15Z" fill="white"/>
  <path d="M20 20H30V25C30 27.7614 27.7614 30 25 30C22.2386 30 20 27.7614 20 25V20Z" fill="#00A8E8"/>
  <path d="M15 15V25C15 30.5228 19.4772 35 25 35C30.5228 35 35 30.5228 35 25V15M15 15H35M15 15L10 10M35 15L40 10" stroke="white" stroke-width="2"/>
  <path d="M22 25H28" stroke="white" stroke-width="2"/>
  <path d="M25 22V28" stroke="white" stroke-width="2"/>
</svg> 